<?xml version="1.0" encoding="UTF-8"?>
<svg width="20px" height="20px" viewBox="0 0 20 20" version="1.1" xmlns="http://www.w3.org/2000/svg" xmlns:xlink="http://www.w3.org/1999/xlink">
    <title>9F01D6AF-D7EB-4542-A1DA-739470024EC9</title>
    <g id="FAQ" stroke="none" stroke-width="1" fill="none" fill-rule="evenodd">
        <g id="9.0.1_FAQ_Desktop_heat-pump_expanded" transform="translate(-1236.000000, -2338.000000)" fill="#FFFFFF" fill-rule="nonzero">
            <g id="Footer" transform="translate(0.000000, 1913.000000)">
                <g id="iconfinder_104493_linkedin_icon" transform="translate(1236.000000, 425.000000)">
                    <path d="M11.0025,9.00385 L11.0025,8.99615 C11.0009,8.99875 10.9992,9.00135 10.9975,9.00385 L11.0025,9.00385 Z" id="Path"></path>
                    <path d="M18.5213961,0 L1.47738998,0 C0.661608498,0 0,0.641762837 0,1.43270739 L0,18.5676947 C0,19.3582372 0.661608498,20 1.47738998,20 L18.5213961,20 C19.3383915,20 20,19.3578351 20,18.5676947 L20,1.43270739 C20,0.64136073 19.3379868,0 18.5213961,0 Z M6.06211431,16.7425309 L3.04137582,16.7425309 L3.04137582,7.71160883 L6.06211431,7.71160883 L6.06211431,16.7425309 Z M4.5519474,6.47794443 L4.53171472,6.47794443 C3.51846232,6.47794443 2.86292362,5.78430978 2.86292362,4.91776911 C2.86292362,4.0319273 3.53869499,3.35759379 4.57177542,3.35759379 C5.6052605,3.35759379 6.24097117,4.0319273 6.26120384,4.91776911 C6.26120384,5.78430978 5.60485584,6.47794443 4.5519474,6.47794443 Z M16.9549823,16.7425309 L13.9342438,16.7425309 L13.9342438,11.9100084 C13.9342438,10.6964494 13.497218,9.86810889 12.4042489,9.86810889 C11.5698533,9.86810889 11.0729388,10.4266356 10.8540212,10.9662632 C10.7743045,11.1588725 10.7548811,11.4282842 10.7548811,11.6985001 L10.7548811,16.7421288 L7.73414264,16.7421288 C7.73414264,16.7421288 7.77379868,8.55764204 7.73414264,7.71120672 L10.7548811,7.71120672 L10.7548811,8.98950501 C11.1562974,8.37428123 11.8741528,7.49808999 13.4777946,7.49808999 C15.4650481,7.49808999 16.9553869,8.7892557 16.9553869,11.5633922 L16.9553869,16.7425309 L16.9549823,16.7425309 Z" id="Shape"></path>
                </g>
            </g>
        </g>
    </g>
</svg>