<?xml version="1.0" encoding="UTF-8"?>
<svg width="11px" height="20px" viewBox="0 0 11 20" version="1.1" xmlns="http://www.w3.org/2000/svg" xmlns:xlink="http://www.w3.org/1999/xlink">
    <title>F2F75080-F81C-40A6-A406-E2DC1CFFB0B7</title>
    <g id="FAQ" stroke="none" stroke-width="1" fill="none" fill-rule="evenodd">
        <g id="9.0.1_FAQ_Desktop_heat-pump_expanded" transform="translate(-1168.000000, -2338.000000)" fill="#FFFFFF">
            <g id="Footer" transform="translate(0.000000, 1913.000000)">
                <g id="iconfinder_5305153_fb_facebook_facebook-logo_icon" transform="translate(1168.000000, 425.000000)">
                    <path d="M10.2792232,11.1650391 L10.8493212,7.5728125 L7.28310705,7.5728125 L7.28310705,5.24167969 C7.28310705,4.25890625 7.78126068,3.30097656 9.37858573,3.30097656 L11,3.30097656 L11,0.242734375 C11,0.242734375 9.52849663,0 8.12170271,0 C5.18451618,0 3.26485642,1.72039063 3.26485642,4.83496094 L3.26485642,7.5728125 L0,7.5728125 L0,11.1650391 L3.26485642,11.1650391 L3.26485642,19.8490234 C3.9195091,19.9482813 4.59049071,20 5.27400195,20 C5.95751318,20 6.62845437,19.9482813 7.28310705,19.8490234 L7.28310705,11.1650391 L10.2792232,11.1650391 L10.2792232,11.1650391 Z" id="Path"></path>
                </g>
            </g>
        </g>
    </g>
</svg>