<?xml version="1.0" encoding="UTF-8"?>
<svg width="25px" height="21px" viewBox="0 0 25 21" version="1.1" xmlns="http://www.w3.org/2000/svg" xmlns:xlink="http://www.w3.org/1999/xlink">
    <title>15E7BC63-7EE2-477D-BFBB-27E3FECDC49E</title>
    <g id="FAQ" stroke="none" stroke-width="1" fill="none" fill-rule="evenodd">
        <g id="9.0.1_FAQ_Desktop_heat-pump_expanded" transform="translate(-1195.000000, -2338.000000)" fill="#FFFFFF">
            <g id="Footer" transform="translate(0.000000, 1913.000000)">
                <g id="iconfinder_5305170_bird_social-media_social-network_tweet_twitter_icon" transform="translate(1195.000000, 425.000000)">
                    <path d="M7.86201172,20.3137695 C17.2959961,20.3137695 22.4560059,12.4978027 22.4560059,5.71977539 C22.4560059,5.49780273 22.4560059,5.27680664 22.4410156,5.05678711 C23.4448242,4.33066406 24.311377,3.43168945 25,2.40180664 C24.063916,2.81660156 23.0708008,3.08857422 22.0540039,3.20878906 C23.1245117,2.56796875 23.9262207,1.55927734 24.3089844,0.371777344 C23.3021973,0.969189453 22.2005859,1.3902832 21.052002,1.61679688 C20.0821777,0.585498047 18.7276855,8.8817842e-16 17.3121094,8.8817842e-16 C14.4956055,8.8817842e-16 12.1780762,2.31757813 12.1780762,5.13398438 C12.1780762,5.52470703 12.2227051,5.91420898 12.3109863,6.29477539 C8.18901367,6.08818359 4.34321289,4.13847656 1.73999023,0.935791016 C0.386279297,3.26616211 1.08671875,6.28618164 3.32797852,7.78276367 C2.51181641,7.75859375 1.71318359,7.53837891 1,7.14077148 L1,7.20576172 C1.00068359,9.63808594 2.73081055,11.7521973 5.11499023,12.2337891 C4.35991211,12.4396973 3.56748047,12.4697754 2.79902344,12.3217773 C3.46928711,14.4060059 5.40209961,15.8426758 7.59101562,15.8837891 C5.77509766,17.3108887 3.53061523,18.086084 1.22099609,18.0837891 C0.812890625,18.0830078 0.405175781,18.0583008 0,18.0097656 C2.34541016,19.5148926 5.07519531,20.3134766 7.86201172,20.3097656" id="Path"></path>
                </g>
            </g>
        </g>
    </g>
</svg>