<?xml version="1.0" encoding="UTF-8"?>
<svg width="155px" height="38px" viewBox="0 0 155 38" version="1.1" xmlns="http://www.w3.org/2000/svg" xmlns:xlink="http://www.w3.org/1999/xlink">
    <title>47650D76-D6FD-4038-A07D-F07DDAB61B59</title>
    <defs>
        <polygon id="path-1" points="0 0 20.5551244 0 20.5551244 21.4145693 0 21.4145693"></polygon>
        <polygon id="path-3" points="0 38 155 38 155 0 0 0"></polygon>
    </defs>
    <g id="FAQ" stroke="none" stroke-width="1" fill="none" fill-rule="evenodd">
        <g id="9.0.1_FAQ_Desktop_heat-pump_expanded" transform="translate(-85.000000, -1989.000000)">
            <g id="Footer" transform="translate(0.000000, 1913.000000)">
                <g id="Group-15" transform="translate(85.000000, 76.000000)">
                    <polygon id="Fill-1" fill="#EE7623" points="142.830455 0 140.213784 8.35915493 135.783542 3.84330986 132 7.63556338 137.642803 13.2869718 134.244117 16.693662 138.296531 20.7517606 141.695217 17.346831 147.336262 23 151.121562 19.209507 146.613998 14.7728873 155 12.1073944 153.411369 6.82746479 145.749389 9.26232394 148.10949 1.51584507"></polygon>
                    <g id="Group-14">
                        <g id="Group-4" transform="translate(0.000000, 16.584252)">
                            <mask id="mask-2" fill="white">
                                <use xlink:href="#path-1"></use>
                            </mask>
                            <g id="Clip-3"></g>
                            <path d="M5.85847019,8.19168734 C6.05348216,7.2336051 6.5228915,6.43548387 7.26324667,5.81584544 C8.0743584,5.13895782 9.12880365,4.7971464 10.4006959,4.7971464 C11.6415242,4.7971464 12.6666314,5.13895782 13.4501308,5.81416164 C14.1663252,6.43211627 14.6132996,7.2319213 14.782425,8.19168734 L5.85847019,8.19168734 Z M20.5551244,10.468185 C20.5551244,8.44088976 20.1323109,6.61228288 19.2987641,5.02614321 C18.4634916,3.43495214 17.2658075,2.18557249 15.7454044,1.31168026 C14.2232756,0.442839419 12.4405556,0 10.4403886,0 C8.41433502,0 6.58847075,0.449574619 5.01629461,1.33188586 C3.44066693,2.21588089 2.19638702,3.48546615 1.31797027,5.10191421 C0.879624784,5.90845445 0.551728553,6.78403049 0.33083004,7.71853952 C0.109931526,8.65641616 -0.000517730891,9.65490961 -0.000517730891,10.7089685 C-0.000517730891,12.8170861 0.449908145,14.704626 1.33867951,16.3160227 C2.22917664,17.9324708 3.48898848,19.202056 5.07669654,20.0843672 C6.66613038,20.9683623 8.49717196,21.4145693 10.5232255,21.4145693 C14.80486,21.4145693 17.9492123,19.6263736 19.8699939,16.0954449 L19.9856204,15.8816023 L15.3156878,13.49229 L15.2104159,13.728022 C14.8203919,14.5918114 14.2733229,15.302375 13.5847409,15.8327721 C12.9082392,16.3564339 11.9331793,16.6207905 10.6854479,16.6207905 C9.31000946,16.6207905 8.14684073,16.1981567 7.23045705,15.3663594 C6.37447531,14.5918114 5.88953404,13.601737 5.7894394,12.4281283 L20.5551244,12.4281283 L20.5551244,10.468185 Z" id="Fill-2" fill="#FFFFFF" mask="url(#mask-2)"></path>
                        </g>
                        <polygon id="Fill-5" fill="#FFFFFF" points="32.1084618 32.7261698 31.6666648 32.7261698 26.6291432 17.1459677 20.5354506 17.1459677 27.7077493 37.44081 36.0673774 37.44081 43.2379502 17.1459677 37.1442576 17.1459677"></polygon>
                        <mask id="mask-4" fill="white">
                            <use xlink:href="#path-3"></use>
                        </mask>
                        <g id="Clip-8"></g>
                        <polygon id="Fill-7" fill="#FFFFFF" mask="url(#mask-4)" points="45.0218783 37.4409784 50.6737739 37.4409784 50.6737739 17.1461361 45.0218783 17.1461361"></polygon>
                        <path d="M63.3659467,10.9943726 L57.7140511,10.9943726 L57.7140511,17.146978 L52.6368368,17.146978 L52.6368368,21.6999734 L57.7140511,21.6999734 L57.7140511,32.7254963 C57.7140511,32.7793779 57.7140511,32.8332595 57.7175026,32.8854573 L57.7140511,37.4418203 L63.3659467,37.4418203 L68.4431609,37.4418203 L68.4431609,32.8854573 L63.3659467,32.8854573 L63.3659467,21.6999734 L68.9350053,21.6999734 L68.9350053,17.146978 L63.3659467,17.146978 L63.3659467,10.9943726 Z" id="Fill-9" fill="#FFFFFF" mask="url(#mask-4)"></path>
                        <path d="M76.1048878,24.7759394 C76.298174,23.8178571 76.7693091,23.0197359 77.5096643,22.4000975 C78.3190503,21.7232099 79.3734955,21.3813984 80.6453877,21.3813984 C81.8862161,21.3813984 82.913049,21.7232099 83.6965485,22.3984137 C84.4110171,23.0163683 84.8597172,23.8161733 85.0288426,24.7759394 L76.1048878,24.7759394 Z M90.7998163,27.0524371 C90.7998163,25.0251418 90.3787285,23.1965349 89.543456,21.6103952 C88.7081835,20.0192042 87.5122251,18.7698245 85.9900963,17.8959323 C84.4696933,17.0270915 82.6852475,16.584252 80.6868062,16.584252 C78.6590269,16.584252 76.8348884,17.0338267 75.2609865,17.9161379 C73.6870846,18.8001329 72.4410789,20.0697182 71.5626621,21.6861663 C71.1260424,22.4927065 70.7946947,23.3682825 70.5755219,24.3027916 C70.3546234,25.2406682 70.2441741,26.2391616 70.2441741,27.2932205 C70.2441741,29.4013382 70.6946,31.2888781 71.5850971,32.9002747 C72.4755943,34.5167228 73.7336803,35.786308 75.3231142,36.6686193 C76.9090965,37.5526143 78.7418638,37.9988213 80.7696432,37.9988213 C85.0512776,37.9988213 88.1956299,36.2106257 90.1164115,32.6796969 L90.2320381,32.4658543 L85.5621054,30.076542 L85.4568335,30.312274 C85.0650838,31.1777473 84.5180148,31.8866271 83.8294327,32.4170241 C83.1546568,32.9406859 82.1795969,33.2050425 80.9318655,33.2050425 C79.5564271,33.2050425 78.3932584,32.7824087 77.4768747,31.9506115 C76.6208929,31.1760635 76.1359517,30.185989 76.0341313,29.0123804 L90.7998163,29.0123804 L90.7998163,27.0524371 Z" id="Fill-10" fill="#FFFFFF" mask="url(#mask-4)"></path>
                        <path d="M107.999182,28.9694435 C107.764477,30.2693371 107.24502,31.2998228 106.454618,32.0339596 C105.672844,32.7579936 104.566626,33.125062 103.163575,33.125062 C101.632817,33.125062 100.364377,32.6014002 99.3944942,31.5658632 C98.4177086,30.5252747 97.9241385,29.0873095 97.9241385,27.2940624 C97.9241385,25.5008153 98.4177086,24.0628501 99.3944942,23.0205778 C100.364377,21.9867246 101.632817,21.4613789 103.163575,21.4613789 C104.563174,21.4613789 105.66249,21.840234 106.430457,22.589525 C107.205328,23.3455512 107.678188,24.3474123 107.833508,25.5647997 L107.866297,25.8241049 L113.361148,24.6824885 L113.314552,24.4501241 C112.839965,22.0877526 111.702683,20.1665367 109.933769,18.7386742 C108.16313,17.3108118 105.857502,16.5867777 103.082464,16.5867777 C101.084023,16.5867777 99.2374492,17.048139 97.5962423,17.9557072 C95.9533096,18.866643 94.6417247,20.1530663 93.6960029,21.781301 C92.7520069,23.4078518 92.2722429,25.2633995 92.2722429,27.2940624 C92.2722429,29.3230415 92.7520069,31.1785892 93.6960029,32.80514 C94.6417247,34.4333747 95.9550354,35.7214817 97.5962423,36.6307338 C99.2374492,37.5399858 101.084023,37.9996632 103.082464,37.9996632 C105.857502,37.9996632 108.156227,37.2823644 109.91306,35.8679724 C111.664716,34.4569479 112.864126,32.5593052 113.475049,30.2289259 L113.537176,29.9931939 L108.044052,28.7185572 L107.999182,28.9694435 Z" id="Fill-11" fill="#FFFFFF" mask="url(#mask-4)"></path>
                        <path d="M135.319841,20.9520294 C134.646791,19.6656062 133.678634,18.6452233 132.442983,17.9195055 C131.207332,17.1937877 129.773217,16.8267192 128.180332,16.8267192 C125.103285,16.8267192 122.971959,17.8740429 121.848483,19.9417494 L121.834677,19.9417494 L121.834677,8.99536512 L116.184507,8.99536512 L116.184507,37.4414835 L121.834677,37.4414835 L121.834677,26.9732985 C121.834677,25.2019408 122.255765,23.8094381 123.087586,22.8328341 C123.909052,21.8697005 125.084301,21.3813984 126.583995,21.3813984 C127.926644,21.3813984 128.955202,21.7333127 129.642059,22.4253545 C130.328915,23.1224477 130.67752,24.1950284 130.67752,25.6161556 L130.67752,37.4414835 L136.329416,37.4414835 L136.329416,25.3753722 C136.329416,23.7201967 135.989439,22.2317175 135.319841,20.9520294" id="Fill-12" fill="#FFFFFF" mask="url(#mask-4)"></path>
                        <polygon id="Fill-13" fill="#FFFFFF" mask="url(#mask-4)" points="45.0218783 14.3897554 50.6737739 14.3897554 50.6737739 8.87531017 45.0218783 8.87531017"></polygon>
                    </g>
                </g>
            </g>
        </g>
    </g>
</svg>