<?xml version="1.0" encoding="UTF-8"?>
<svg width="167px" height="41px" viewBox="0 0 167 41" version="1.1" xmlns="http://www.w3.org/2000/svg" xmlns:xlink="http://www.w3.org/1999/xlink">
    <title>4564D6FF-E4E4-4C59-9405-22E96F10EE63</title>
    <defs>
        <polygon id="path-1" points="0 0 22.1464889 0 22.1464889 23.1051932 0 23.1051932"></polygon>
        <polygon id="path-3" points="0 41 167 41 167 0 0 0"></polygon>
    </defs>
    <g id="FAQ" stroke="none" stroke-width="1" fill="none" fill-rule="evenodd">
        <g id="9.0.1_FAQ_Desktop_heat-pump_expanded" transform="translate(-85.000000, -29.000000)">
            <g id="Group-15" transform="translate(85.000000, 29.000000)">
                <polygon id="Fill-1" fill="#EE7623" points="153.772234 0 150.928026 9.08603797 146.112546 4.17751072 142 8.29952541 148.133481 14.4423607 144.439257 18.1452848 148.844056 22.5562615 152.538279 18.8552511 158.66985 25 162.784306 20.879899 157.88478 16.0574862 167 13.1602113 165.273227 7.42115738 156.944988 10.0677434 159.510315 1.64765769"></polygon>
                <g id="Group-14">
                    <g id="Group-4" transform="translate(0.000000, 17.893535)">
                        <mask id="mask-2" fill="white">
                            <use xlink:href="#path-1"></use>
                        </mask>
                        <g id="Clip-3"></g>
                        <path d="M6.31202917,8.8383995 C6.52213884,7.80467919 7.02788955,6.94354839 7.82556255,6.27499114 C8.69947002,5.54466501 9.83554974,5.17586849 11.205911,5.17586849 C12.5428035,5.17586849 13.6472738,5.54466501 14.4914313,6.27317441 C15.263073,6.93991492 15.7446518,7.80286246 15.9268708,8.8383995 L6.31202917,8.8383995 Z M22.1464889,11.2946207 C22.1464889,9.10727579 21.6909414,7.13430521 20.792862,5.42294399 C19.8929232,3.70613258 18.6025152,2.35811769 16.9644035,1.41523396 C15.3244324,0.477800425 13.4036954,0 11.2486767,0 C9.06576741,0 7.0985459,0.485067352 5.4046529,1.43703474 C3.70704114,2.39081886 2.36642988,3.76063453 1.42000668,5.50469692 C0.947724768,6.37491138 0.594443022,7.31961184 0.356442688,8.32789791 C0.118442354,9.33981744 -0.000557813283,10.4171393 -0.000557813283,11.5544133 C-0.000557813283,13.8289614 0.484739743,15.8655175 1.44231921,17.6041297 C2.40175806,19.3481921 3.75910371,20.7180078 5.46973111,21.6699752 C7.18221789,22.6237593 9.15501754,23.1051932 11.3379268,23.1051932 C15.9510427,23.1051932 19.3388287,21.1758242 21.408316,17.3661379 L21.5328943,17.135413 L16.5014185,14.5574708 L16.3879964,14.8118132 C15.9677771,15.7437965 15.3783544,16.5104573 14.6364627,17.0827278 C13.9075867,17.6477313 12.8570384,17.9329582 11.5127083,17.9329582 C10.0307844,17.9329582 8.77756388,17.4769585 7.79023437,16.5794931 C6.86798308,15.7437965 6.34549797,14.6755583 6.23765407,13.4092963 L22.1464889,13.4092963 L22.1464889,11.2946207 Z" id="Fill-2" fill="#08553F" mask="url(#mask-2)"></path>
                    </g>
                    <polygon id="Fill-5" fill="#08553F" points="34.5942782 35.3098148 34.1182776 35.3098148 28.6907543 18.4995968 22.125292 18.4995968 29.8528653 40.3966634 38.8596905 40.3966634 46.5854044 18.4995968 40.0199421 18.4995968"></polygon>
                    <mask id="mask-4" fill="white">
                        <use xlink:href="#path-3"></use>
                    </mask>
                    <g id="Clip-8"></g>
                    <polygon id="Fill-7" fill="#08553F" mask="url(#mask-4)" points="48.5074431 40.3968451 54.5969047 40.3968451 54.5969047 18.4997784 48.5074431 18.4997784"></polygon>
                    <path d="M68.2716974,11.8623493 L62.1822357,11.8623493 L62.1822357,18.5006868 L56.7119468,18.5006868 L56.7119468,23.4131292 L62.1822357,23.4131292 L62.1822357,35.3090881 C62.1822357,35.3672235 62.1822357,35.4253589 62.1859545,35.4816776 L62.1822357,40.3977535 L68.2716974,40.3977535 L73.7419863,40.3977535 L73.7419863,35.4816776 L68.2716974,35.4816776 L68.2716974,23.4131292 L74.2719089,23.4131292 L74.2719089,18.5006868 L68.2716974,18.5006868 L68.2716974,11.8623493 Z" id="Fill-9" fill="#08553F" mask="url(#mask-4)"></path>
                    <path d="M81.9968791,26.7319346 C82.2051294,25.6982143 82.7127395,24.8370835 83.5104125,24.1685262 C84.3824606,23.4382001 85.5185403,23.0694036 86.8889016,23.0694036 C88.2257941,23.0694036 89.3321238,23.4382001 90.1762812,24.1667095 C90.9460636,24.83345 91.4295018,25.6963976 91.6117208,26.7319346 L81.9968791,26.7319346 Z M97.8294795,29.1881558 C97.8294795,27.0008109 97.3757913,25.0278403 96.4758526,23.3164791 C95.5759138,21.5996677 94.2873651,20.2516528 92.6473941,19.3087691 C91.0092824,18.3713355 89.086686,17.8935351 86.9335267,17.8935351 C84.748758,17.8935351 82.7833959,18.3786024 81.0876435,19.3305698 C79.3918911,20.284354 78.0494205,21.6541696 77.1029973,23.398232 C76.6325747,24.2684465 76.2755742,25.2131469 76.0394333,26.221433 C75.8014329,27.2333525 75.6824328,28.3106744 75.6824328,29.4479484 C75.6824328,31.7224965 76.1677303,33.7590526 77.1271692,35.4976648 C78.086608,37.2417272 79.4420943,38.6115429 81.1545811,39.5635103 C82.8633491,40.5172944 84.8380081,40.9987283 87.0227768,40.9987283 C91.6358927,40.9987283 95.0236787,39.0693593 97.093166,35.259673 L97.2177443,35.0289481 L92.1862684,32.4510058 L92.0728464,32.7053483 C91.6507677,33.6391484 91.061345,34.4039924 90.3194533,34.9762629 C89.5924367,35.5412664 88.5418883,35.8264933 87.1975583,35.8264933 C85.7156344,35.8264933 84.4624139,35.3704936 83.4750843,34.4730282 C82.552833,33.6373316 82.0303479,32.5690934 81.9206447,31.3028314 L97.8294795,31.3028314 L97.8294795,29.1881558 Z" id="Fill-10" fill="#08553F" mask="url(#mask-4)"></path>
                    <path d="M116.360409,31.2565048 C116.107533,32.6590216 115.547861,33.7708614 114.696266,34.5629564 C113.853968,35.344151 112.662107,35.7401985 111.150433,35.7401985 C109.501165,35.7401985 108.134522,35.175195 107.089552,34.057905 C106.037144,32.9351648 105.505362,31.383676 105.505362,29.4488568 C105.505362,27.5140376 106.037144,25.9625487 107.089552,24.8379918 C108.134522,23.7225186 109.501165,23.1556983 111.150433,23.1556983 C112.658388,23.1556983 113.842811,23.564463 114.670234,24.3729085 C115.505095,25.1886211 116.014564,26.2695764 116.181908,27.5830734 L116.217237,27.8628501 L122.137495,26.631106 L122.087292,26.380397 C121.575963,23.8315225 120.350633,21.7586317 118.444771,20.2180432 C116.537049,18.6774548 114.052921,17.8962602 111.063042,17.8962602 C108.909883,17.8962602 106.920348,18.3940447 105.15208,19.373263 C103.381953,20.3561149 101.968826,21.7440978 100.949887,23.5008773 C99.9328074,25.2558401 99.4159005,27.2578784 99.4159005,29.4488568 C99.4159005,31.6380184 99.9328074,33.6400567 100.949887,35.3950195 C101.968826,37.151799 103.383812,38.5415987 105.15208,39.5226338 C106.920348,40.5036689 108.909883,40.9996367 111.063042,40.9996367 C114.052921,40.9996367 116.529612,40.225709 118.422458,38.6996544 C120.309727,37.1772333 121.601994,35.1297767 122.260214,32.6154201 L122.327151,32.3610776 L116.408752,30.9858118 L116.360409,31.2565048 Z" id="Fill-11" fill="#08553F" mask="url(#mask-4)"></path>
                    <path d="M145.796216,22.606137 C145.071058,21.218154 144.027947,20.1172146 142.696633,19.3342033 C141.365319,18.551192 139.820176,18.1551445 138.10397,18.1551445 C134.7887,18.1551445 132.492369,19.2851515 131.281914,21.516098 L131.267039,21.516098 L131.267039,9.70552552 L125.179437,9.70552552 L125.179437,40.3973901 L131.267039,40.3973901 L131.267039,29.1027694 C131.267039,27.1915677 131.720727,25.6891306 132.616947,24.6354263 C133.502011,23.5962558 134.768247,23.0694036 136.384046,23.0694036 C137.830642,23.0694036 138.938831,23.4491005 139.678863,24.1957772 C140.418896,24.9479041 140.79449,26.1051622 140.79449,27.6384837 L140.79449,40.3973901 L146.883951,40.3973901 L146.883951,27.3786911 C146.883951,25.5928438 146.517654,23.9868531 145.796216,22.606137" id="Fill-12" fill="#08553F" mask="url(#mask-4)"></path>
                    <polygon id="Fill-13" fill="#08553F" mask="url(#mask-4)" points="48.5074431 15.5257887 54.5969047 15.5257887 54.5969047 9.57599256 48.5074431 9.57599256"></polygon>
                </g>
            </g>
        </g>
    </g>
</svg>